<svg id="Capa_1" data-name="Capa 1" xmlns="http://www.w3.org/2000/svg" viewBox="0 0 483.36 512"><defs><style>.cls-1{fill:#fff;}</style></defs><title>cart</title><path class="cls-1" d="M180.21,395a58.48,58.48,0,1,0,58.48,58.48A58.54,58.54,0,0,0,180.21,395Zm0,81.16a22.68,22.68,0,1,1,22.68-22.68A22.7,22.7,0,0,1,180.21,476.2Z" transform="translate(-14.32 0)"/><path class="cls-1" d="M392.66,395a58.48,58.48,0,1,0,58.48,58.48A58.54,58.54,0,0,0,392.66,395Zm0,81.16a22.68,22.68,0,1,1,22.67-22.68A22.71,22.71,0,0,1,392.66,476.2Z" transform="translate(-14.32 0)"/><path class="cls-1" d="M154.55,377.14H433.23a17.9,17.9,0,0,0,0-35.8H169.78L118.52,27a17.91,17.91,0,0,0-14.6-14.76L35.29.27a17.9,17.9,0,0,0-6.14,35.27l56.08,9.75,51.65,316.83A17.9,17.9,0,0,0,154.55,377.14Z" transform="translate(-14.32 0)"/><path class="cls-1" d="M494.24,116a17.88,17.88,0,0,0-14.47-7.36h-364v35.81H455.22L418.39,259h-277v35.8h290a17.91,17.91,0,0,0,17-12.42L496.82,132A17.89,17.89,0,0,0,494.24,116Z" transform="translate(-14.32 0)"/></svg>